<svg width="16" height="21" viewBox="0 0 16 21" fill="none" xmlns="http://www.w3.org/2000/svg">
<path d="M8 2.29153V0.501534C8 0.0515344 7.46 -0.168466 7.15 0.151534L4.35 2.94153C4.15 3.14153 4.15 3.45153 4.35 3.65153L7.14 6.44153C7.46 6.75153 8 6.53153 8 6.08153V4.29153C11.31 4.29153 14 6.98153 14 10.2915C14 11.0815 13.85 11.8515 13.56 12.5415C13.41 12.9015 13.52 13.3115 13.79 13.5815C14.3 14.0915 15.16 13.9115 15.43 13.2415C15.8 12.3315 16 11.3315 16 10.2915C16 5.87153 12.42 2.29153 8 2.29153ZM8 16.2915C4.69 16.2915 2 13.6015 2 10.2915C2 9.50153 2.15 8.73153 2.44 8.04153C2.59 7.68153 2.48 7.27153 2.21 7.00153C1.7 6.49153 0.84 6.67153 0.57 7.34153C0.2 8.25153 0 9.25153 0 10.2915C0 14.7115 3.58 18.2915 8 18.2915V20.0815C8 20.5315 8.54 20.7515 8.85 20.4315L11.64 17.6415C11.84 17.4415 11.84 17.1315 11.64 16.9315L8.85 14.1415C8.54 13.8315 8 14.0515 8 14.5015V16.2915Z" fill="black"/>
</svg>
